<?xml version="1.0" encoding="UTF-8" standalone="no"?>
<svg
   xmlns:dc="http://purl.org/dc/elements/1.1/"
   xmlns:cc="http://creativecommons.org/ns#"
   xmlns:rdf="http://www.w3.org/1999/02/22-rdf-syntax-ns#"
   xmlns:svg="http://www.w3.org/2000/svg"
   xmlns="http://www.w3.org/2000/svg"
   xmlns:sodipodi="http://sodipodi.sourceforge.net/DTD/sodipodi-0.dtd"
   xmlns:inkscape="http://www.inkscape.org/namespaces/inkscape"
   inkscape:version="1.0 (4035a4fb49, 2020-05-01)"
   sodipodi:docname="svgexport-2.svg"
   id="svg4"
   version="1.1"
   height="200"
   width="930.88275"
   fill="none"
   viewBox="0 0 930.88277 200">
  <metadata
     id="metadata10">
    <rdf:RDF>
      <cc:Work
         rdf:about="">
        <dc:format>image/svg+xml</dc:format>
        <dc:type
           rdf:resource="http://purl.org/dc/dcmitype/StillImage" />
      </cc:Work>
    </rdf:RDF>
  </metadata>
  <defs
     id="defs8" />
  <sodipodi:namedview
     inkscape:current-layer="svg4"
     inkscape:window-maximized="1"
     inkscape:window-y="-8"
     inkscape:window-x="-8"
     inkscape:cy="14.5"
     inkscape:cx="568.40292"
     inkscape:zoom="1"
     showgrid="false"
     id="namedview6"
     inkscape:window-height="706"
     inkscape:window-width="1360"
     inkscape:pageshadow="2"
     inkscape:pageopacity="0"
     guidetolerance="10"
     gridtolerance="10"
     objecttolerance="10"
     borderopacity="1"
     bordercolor="#666666"
     pagecolor="#ffffff" />
  <g
     id="g897">
    <path
       style="fill:#dc1928;fill-opacity:1;stroke-width:6.89655"
       d="M 903.91724,91.772414 H 892.88966 V 81.634483 h 11.14482 V 60 h 13.47586 v 21.627586 h 13.26207 v 10.137931 h -13.26207 v 29.965513 c 0,5.30345 2.67587,7.44828 7.8069,7.44828 h 5.56552 v 10.81379 h -7.91035 c -12.81379,0 -19.05517,-5.86207 -19.05517,-17.35172 z"
       id="path875" />
    <path
       style="fill:#dc1928;fill-opacity:1;stroke-width:6.89655"
       d="m 853.66897,123.09655 c 0.88965,5.17242 4.33793,8.33793 11.5862,8.33793 6.68966,0 10.47586,-2.82758 10.47586,-7.65517 0,-3.94483 -1.44827,-6.31724 -7.68275,-7.10345 l -10.36552,-1.24138 c -11.8069,-1.35172 -16.71724,-6.9931 -16.71724,-16.110342 0,-11.151724 9.35862,-19.144828 23.84827,-19.144828 15.15173,0 22.50345,8.896552 23.17931,17.682759 h -13.37241 c -0.66897,-4.724138 -4.01379,-7.655172 -10.02759,-7.655172 -6.24138,0 -10.25517,2.931034 -10.25517,7.441379 0,3.717244 2.0069,5.862064 8.69655,6.648274 l 10.25518,1.24138 c 11.35862,1.34483 15.82068,6.64828 15.82068,16.33793 0,12.05517 -10.36551,19.59311 -23.95172,19.59311 -15.71724,0 -24.07586,-7.76552 -25.17931,-18.36552 h 13.68966 z"
       id="path873" />
    <path
       id="path869"
       style="fill:#dc1928;fill-opacity:1;stroke-width:6.89655"
       d="m 806.08966,80.275862 c 16.71724,0 27.86206,12.062069 27.86206,30.648278 0,18.5862 -11.14482,30.53103 -27.86206,30.53103 -16.71035,0 -27.85518,-11.94483 -27.85518,-30.53103 0,-18.586209 11.14483,-30.648278 27.85518,-30.648278 z m 14.03448,28.289658 c 0,-10.931037 -5.35173,-17.351727 -14.04138,-17.351727 -8.69655,0 -14.04138,6.42069 -14.04138,17.351727 v 4.73103 c 0,10.92414 5.34483,17.24138 14.04138,17.24138 8.68965,0 14.04138,-6.31724 14.04138,-17.24138 z" />
    <path
       id="path865"
       style="fill:#dc1928;fill-opacity:1;stroke-width:6.89655"
       d="m 747.58621,60 c 17.04827,0 27.85517,9.793103 27.85517,25.903448 0,16.455172 -10.91724,26.137932 -27.85517,26.137932 H 727.63448 V 140 H 713.26897 V 60 Z m 13.26207,25.917241 c 0,-9.917241 -6.0138,-14.082758 -15.93104,-14.082758 h -17.26896 v 28.393107 h 17.26896 c 9.91724,0 15.93104,-3.951728 15.93104,-14.310349 z" />
    <path
       id="path861"
       style="fill:#dc1928;fill-opacity:1;stroke-width:6.89655"
       d="m 647.97931,141.46207 c -11.02759,0 -18.49655,-6.53793 -18.49655,-17.46207 0,-11.48276 8.68965,-15.88276 18.17241,-17.12414 l 12.24828,-1.5862 c 4.68276,-0.44138 5.7931,-2.58621 5.7931,-5.965522 0,-4.965517 -3.22758,-8.786207 -10.02069,-8.786207 -6.91724,0 -10.5862,3.827586 -11.14483,9.241379 h -13.82069 c 0.33794,-9.924138 8.58621,-19.6 24.62069,-19.6 15.15863,0 24.07587,9.006897 24.07587,22.30345 v 27.48965 c 0,3.6138 0.55172,7.2138 1.22758,10.02759 H 666.5931 a 50.634483,50.634483 0 0 1 -0.55172,-7.54483 h -0.34483 c -3.01379,5.05517 -9.35862,9.0069 -17.71724,9.0069 z m 10.47586,-28.27586 -6.01379,1.34482 c -5.68966,1.24138 -9.24828,3.6138 -9.24828,8.89656 0,5.31034 3.12414,8 9.13793,8 7.02069,0 13.48276,-4.6138 13.48276,-12.27587 v -9.13103 c -1.67586,1.69655 -4.35862,2.48276 -7.35862,3.16552 z" />
    <path
       style="fill:#dc1928;fill-opacity:1;stroke-width:6.89655"
       d="M 620,81.634483 V 140 H 606.4 V 81.641379 H 620 Z"
       id="path859" />
    <path
       style="fill:#dc1928;fill-opacity:1;stroke-width:6.89655"
       d="m 621.56552,63.37931 c 0,4.724138 -3.68276,8.337931 -8.35862,8.337931 a 8.2344828,8.2344828 0 0 1 -8.35862,-8.344827 c 0,-4.724138 3.68275,-8.337931 8.35862,-8.337931 4.67586,0 8.35862,3.613793 8.35862,8.344827 z"
       id="path857" />
    <path
       style="fill:#dc1928;fill-opacity:1;stroke-width:6.89655"
       d="M 573.65517,124.22069 V 55.944828 h 13.59311 v 67.379312 c 0,3.60689 1.56551,5.86207 5.57241,5.86207 h 4.46207 v 10.80689 h -7.13104 c -10.5931,0 -16.49655,-6.07586 -16.49655,-15.77241 z"
       id="path855" />
    <path
       id="path851"
       style="fill:#dc1928;fill-opacity:1;stroke-width:6.89655"
       d="m 530.30345,141.46207 c -11.02759,0 -18.48966,-6.53793 -18.48966,-17.46207 0,-11.48276 8.68966,-15.88276 18.16552,-17.12414 l 12.25517,-1.5862 c 4.67586,-0.44138 5.79311,-2.58621 5.79311,-5.965522 0,-4.965517 -3.23449,-8.786207 -10.02759,-8.786207 -6.91034,0 -10.57931,3.827586 -11.14483,9.241379 h -13.81379 c 0.33103,-9.924138 8.57931,-19.6 24.62069,-19.6 15.15172,0 24.06896,9.006897 24.06896,22.30345 v 27.48965 c 0,3.6138 0.55863,7.2138 1.22759,10.02759 h -14.04138 a 50.634483,50.634483 0 0 1 -0.55172,-7.54483 h -0.33793 c -3.0069,5.05517 -9.36552,9.0069 -17.72414,9.0069 z m 10.48276,-28.27586 -6.02069,1.34482 c -5.68276,1.24138 -9.24138,3.6138 -9.24138,8.89656 0,5.31034 3.11034,8 9.13103,8 7.02759,0 13.48276,-4.6138 13.48276,-12.27587 v -9.13103 c -1.66896,1.69655 -4.34483,2.48276 -7.35862,3.16552 z" />
    <path
       style="fill:#dc1928;fill-opacity:1;stroke-width:6.89655"
       d="m 489.08276,139.9931 h -13.6 V 81.634483 h 13.6 v 8.793103 h 0.44827 c 2.78621,-6.420689 7.46207,-8.793103 12.36552,-8.793103 h 6.57931 v 12.172414 h -6.01379 c -9.02759,0 -13.37241,4.386206 -13.37241,15.103443 v 31.08276 z"
       id="path849" />
    <path
       style="fill:#dc1928;fill-opacity:1;stroke-width:6.89655"
       d="M 437.04828,91.772414 H 426.02069 V 81.634483 h 11.15172 V 60 h 13.47587 v 21.627586 h 13.26206 v 10.137931 h -13.26206 v 29.965513 c 0,5.30345 2.66896,7.44828 7.80689,7.44828 h 5.56552 v 10.81379 h -7.91035 c -12.82068,0 -19.06206,-5.86207 -19.06206,-17.35172 z"
       id="path847" />
    <path
       style="fill:#dc1928;fill-opacity:1;stroke-width:6.89655"
       d="m 386.8,123.09655 c 0.89655,5.17242 4.34483,8.33793 11.58621,8.33793 6.68965,0 10.48276,-2.82758 10.48276,-7.65517 0,-3.94483 -1.44828,-6.31724 -7.68966,-7.10345 l -10.36552,-1.24138 c -11.80689,-1.35172 -16.71034,-6.9931 -16.71034,-16.110342 0,-11.151724 9.35862,-19.144828 23.84138,-19.144828 15.15172,0 22.51034,8.896552 23.1862,17.682759 h -13.37931 c -0.66896,-4.724138 -4.00689,-7.655172 -10.02069,-7.655172 -6.24137,0 -10.25517,2.931034 -10.25517,7.441379 0,3.717244 2,5.862064 8.68966,6.648274 l 10.25517,1.24138 c 11.36552,1.34483 15.82759,6.64828 15.82759,16.33793 0,12.05517 -10.36552,19.59311 -23.95862,19.59311 -15.71035,0 -24.06897,-7.76552 -25.17242,-18.36552 H 386.8 Z"
       id="path845" />
    <path
       style="fill:#dc1928;fill-opacity:1;stroke-width:6.89655"
       d="m 350.34483,81.634483 h 13.6 V 140 h -13.59311 v -6.75862 h -0.44827 c -3.67586,5.06896 -8.68966,8.22759 -16.37931,8.22759 -11.69655,0 -19.27586,-8.55863 -19.27586,-21.62759 V 81.641379 h 13.6 v 36.731031 c 0,6.53793 3.11724,11.26897 10.5862,11.26897 7.79311,0 11.92414,-5.51724 11.92414,-12.17241 V 81.641379 h -0.0138 z"
       id="path843" />
    <path
       id="path839"
       style="fill:#dc1928;fill-opacity:1;stroke-width:6.89655"
       d="m 288.74483,123.32414 h -31.86207 l -5.58621,16.66896 h -14.04138 l 27.29655,-79.999997 h 16.82759 L 308.45517,139.9931 H 294.30345 Z M 284.72414,111.26207 272.8,75.77931 260.86897,111.26207 h 23.86206 z" />
  </g>
  <path
     d="M 0,99.986207 C 0,142.77241 26.524138,179.24828 63.862069,193.57241 V 6.4137931 C 26.517241,20.737931 0,57.206897 0,99.986207 Z M 98.889655,0 C 96.151724,0 93.441379,0.09655172 90.758621,0.29655172 V 7.3310345 h 0.503448 C 128.95172,7.6068966 159.29655,36.668966 159.02759,72.248276 158.77931,107.66207 128.24138,136.17931 90.772414,136.14483 v 63.53793 C 93.441379,199.91034 96.158621,200 98.896552,200 153.48966,200 197.7931,155.22069 197.7931,99.986207 197.7931,44.758621 153.48966,0 98.896552,0 Z"
     style="fill:#dc1928;fill-opacity:1;stroke-width:6.89655"
     id="path2" />
</svg>
